<svg width="180" height="40" viewBox="0 0 180 40" fill="none" xmlns="http://www.w3.org/2000/svg">
<rect width="180" height="40" rx="20" fill="#BC3800"/>
<path d="M26.984 26.208C26.2267 26.208 25.5147 26.0587 24.848 25.76C24.1813 25.456 23.5947 25.0373 23.088 24.504C22.5867 23.9707 22.192 23.3547 21.904 22.656C21.6213 21.952 21.48 21.2 21.48 20.4C21.48 19.5947 21.6213 18.8427 21.904 18.144C22.192 17.44 22.5867 16.824 23.088 16.296C23.5947 15.7627 24.1813 15.3467 24.848 15.048C25.5147 14.744 26.2267 14.592 26.984 14.592C27.8907 14.592 28.7253 14.8027 29.488 15.224C30.2507 15.64 30.8827 16.1973 31.384 16.896L29.64 17.832C29.3253 17.4427 28.9333 17.1307 28.464 16.896C28 16.6613 27.5067 16.544 26.984 16.544C26.4933 16.544 26.032 16.6453 25.6 16.848C25.168 17.0453 24.7893 17.3227 24.464 17.68C24.1387 18.032 23.8853 18.4427 23.704 18.912C23.5227 19.376 23.432 19.872 23.432 20.4C23.432 20.9333 23.5227 21.432 23.704 21.896C23.8907 22.36 24.1467 22.7707 24.472 23.128C24.7973 23.48 25.1733 23.7573 25.6 23.96C26.032 24.1573 26.4933 24.256 26.984 24.256C27.5173 24.256 28.0133 24.1387 28.472 23.904C28.936 23.664 29.3253 23.3493 29.64 22.96L31.384 23.904C30.8827 24.5973 30.2507 25.1547 29.488 25.576C28.7253 25.9973 27.8907 26.208 26.984 26.208ZM33.0941 26V14.8H37.3901C37.9981 14.8 38.5475 14.952 39.0381 15.256C39.5288 15.56 39.9181 15.968 40.2061 16.48C40.4941 16.9867 40.6381 17.5493 40.6381 18.168C40.6381 18.6747 40.5448 19.1413 40.3581 19.568C40.1768 19.9893 39.9208 20.3547 39.5901 20.664C39.2648 20.9733 38.8888 21.208 38.4621 21.368L41.1421 26H38.8941L36.3021 21.544H35.0461V26H33.0941ZM35.0461 19.592H37.1661C37.4435 19.592 37.6968 19.5227 37.9261 19.384C38.1555 19.2453 38.3395 19.0587 38.4781 18.824C38.6168 18.5893 38.6861 18.328 38.6861 18.04C38.6861 17.7467 38.6168 17.4827 38.4781 17.248C38.3395 17.0133 38.1555 16.8267 37.9261 16.688C37.6968 16.5493 37.4435 16.48 37.1661 16.48H35.0461V19.592ZM42.6631 26V14.8H49.6871V16.752H44.6151V19.024H48.6391V20.976H44.6151V24.048H49.6871V26H42.6631ZM54.9384 14.8H57.1864L61.2584 26H59.1864L58.4664 24.016H53.6664L52.9464 26H50.8744L54.9384 14.8ZM54.3784 22.064H57.7464L56.0584 17.448L54.3784 22.064ZM69.8931 14.8V16.752H66.4691V26H64.5171V16.752H61.0931V14.8H69.8931ZM71.4913 26V14.8H78.5153V16.752H73.4433V19.024H77.4673V20.976H73.4433V24.048H78.5153V26H71.4913ZM87.8602 14.8H90.1083L94.1803 26H92.1083L91.3883 24.016H86.5883L85.8683 26H83.7963L87.8602 14.8ZM87.3003 22.064H90.6683L88.9803 17.448L87.3003 22.064ZM99.9528 26.208C99.1954 26.208 98.4834 26.0587 97.8168 25.76C97.1501 25.456 96.5634 25.0373 96.0568 24.504C95.5554 23.9707 95.1608 23.3547 94.8728 22.656C94.5901 21.952 94.4488 21.2 94.4488 20.4C94.4488 19.5947 94.5901 18.8427 94.8728 18.144C95.1608 17.44 95.5554 16.824 96.0568 16.296C96.5634 15.7627 97.1501 15.3467 97.8168 15.048C98.4834 14.744 99.1954 14.592 99.9528 14.592C100.859 14.592 101.694 14.8027 102.457 15.224C103.219 15.64 103.851 16.1973 104.353 16.896L102.609 17.832C102.294 17.4427 101.902 17.1307 101.433 16.896C100.969 16.6613 100.475 16.544 99.9528 16.544C99.4621 16.544 99.0008 16.6453 98.5688 16.848C98.1368 17.0453 97.7581 17.3227 97.4328 17.68C97.1074 18.032 96.8541 18.4427 96.6728 18.912C96.4914 19.376 96.4008 19.872 96.4008 20.4C96.4008 20.9333 96.4914 21.432 96.6728 21.896C96.8594 22.36 97.1154 22.7707 97.4408 23.128C97.7661 23.48 98.1421 23.7573 98.5688 23.96C99.0008 24.1573 99.4621 24.256 99.9528 24.256C100.486 24.256 100.982 24.1387 101.441 23.904C101.905 23.664 102.294 23.3493 102.609 22.96L104.353 23.904C103.851 24.5973 103.219 25.1547 102.457 25.576C101.694 25.9973 100.859 26.208 99.9528 26.208ZM110.843 26.208C110.086 26.208 109.374 26.0587 108.707 25.76C108.041 25.456 107.454 25.0373 106.947 24.504C106.446 23.9707 106.051 23.3547 105.763 22.656C105.481 21.952 105.339 21.2 105.339 20.4C105.339 19.5947 105.481 18.8427 105.763 18.144C106.051 17.44 106.446 16.824 106.947 16.296C107.454 15.7627 108.041 15.3467 108.707 15.048C109.374 14.744 110.086 14.592 110.843 14.592C111.75 14.592 112.585 14.8027 113.347 15.224C114.11 15.64 114.742 16.1973 115.243 16.896L113.499 17.832C113.185 17.4427 112.793 17.1307 112.323 16.896C111.859 16.6613 111.366 16.544 110.843 16.544C110.353 16.544 109.891 16.6453 109.459 16.848C109.027 17.0453 108.649 17.3227 108.323 17.68C107.998 18.032 107.745 18.4427 107.563 18.912C107.382 19.376 107.291 19.872 107.291 20.4C107.291 20.9333 107.382 21.432 107.563 21.896C107.75 22.36 108.006 22.7707 108.331 23.128C108.657 23.48 109.033 23.7573 109.459 23.96C109.891 24.1573 110.353 24.256 110.843 24.256C111.377 24.256 111.873 24.1387 112.331 23.904C112.795 23.664 113.185 23.3493 113.499 22.96L115.243 23.904C114.742 24.5973 114.11 25.1547 113.347 25.576C112.585 25.9973 111.75 26.208 110.843 26.208ZM121.91 26.208C121.153 26.208 120.441 26.0587 119.774 25.76C119.107 25.456 118.521 25.0373 118.014 24.504C117.507 23.9707 117.11 23.3547 116.822 22.656C116.534 21.952 116.39 21.2 116.39 20.4C116.39 19.6 116.534 18.8507 116.822 18.152C117.11 17.448 117.507 16.8293 118.014 16.296C118.521 15.7627 119.107 15.3467 119.774 15.048C120.441 14.744 121.153 14.592 121.91 14.592C122.673 14.592 123.387 14.744 124.054 15.048C124.721 15.3467 125.307 15.7627 125.814 16.296C126.321 16.8293 126.715 17.448 126.998 18.152C127.286 18.8507 127.43 19.6 127.43 20.4C127.43 21.2 127.286 21.952 126.998 22.656C126.715 23.3547 126.321 23.9707 125.814 24.504C125.307 25.0373 124.721 25.456 124.054 25.76C123.387 26.0587 122.673 26.208 121.91 26.208ZM121.91 24.256C122.401 24.256 122.862 24.1547 123.294 23.952C123.726 23.7493 124.105 23.472 124.43 23.12C124.761 22.7627 125.017 22.352 125.198 21.888C125.385 21.424 125.478 20.928 125.478 20.4C125.478 19.872 125.385 19.376 125.198 18.912C125.011 18.4427 124.753 18.032 124.422 17.68C124.097 17.328 123.718 17.0507 123.286 16.848C122.859 16.6453 122.401 16.544 121.91 16.544C121.419 16.544 120.958 16.6453 120.526 16.848C120.094 17.0507 119.713 17.3307 119.382 17.688C119.057 18.04 118.801 18.448 118.614 18.912C118.433 19.376 118.342 19.872 118.342 20.4C118.342 20.9333 118.435 21.432 118.622 21.896C118.809 22.36 119.065 22.7707 119.39 23.128C119.721 23.48 120.099 23.7573 120.526 23.96C120.958 24.1573 121.419 24.256 121.91 24.256ZM133.511 26.208C132.615 26.208 131.828 25.9893 131.151 25.552C130.479 25.1147 129.956 24.528 129.583 23.792C129.209 23.0507 129.023 22.2293 129.023 21.328V14.8H130.975V21.328C130.975 21.8613 131.073 22.352 131.271 22.8C131.473 23.2427 131.761 23.5973 132.135 23.864C132.513 24.1253 132.972 24.256 133.511 24.256C134.055 24.256 134.513 24.1253 134.887 23.864C135.26 23.5973 135.543 23.2427 135.735 22.8C135.932 22.352 136.031 21.8613 136.031 21.328V14.8H137.983V21.328C137.983 22.0053 137.876 22.64 137.663 23.232C137.449 23.8187 137.145 24.336 136.751 24.784C136.356 25.232 135.884 25.5813 135.335 25.832C134.791 26.0827 134.183 26.208 133.511 26.208ZM139.954 26V14.8H142.066L146.794 22.472V14.8H148.746V26H146.642L141.906 18.328V26H139.954ZM159.206 14.8V16.752H155.782V26H153.83V16.752H150.406V14.8H159.206Z" fill="white"/>
</svg>
