<svg width="50" height="13" viewBox="0 0 50 13" fill="none" xmlns="http://www.w3.org/2000/svg">
<path d="M0.96 12V0.799999H2.912V10.048H7.576V12H0.96ZM13.66 12.208C12.9027 12.208 12.1907 12.0587 11.524 11.76C10.8573 11.456 10.2707 11.0373 9.764 10.504C9.25733 9.97067 8.86 9.35467 8.572 8.656C8.284 7.952 8.14 7.2 8.14 6.4C8.14 5.6 8.284 4.85067 8.572 4.152C8.86 3.448 9.25733 2.82933 9.764 2.296C10.2707 1.76267 10.8573 1.34667 11.524 1.048C12.1907 0.743999 12.9027 0.591999 13.66 0.591999C14.4227 0.591999 15.1373 0.743999 15.804 1.048C16.4707 1.34667 17.0573 1.76267 17.564 2.296C18.0707 2.82933 18.4653 3.448 18.748 4.152C19.036 4.85067 19.18 5.6 19.18 6.4C19.18 7.2 19.036 7.952 18.748 8.656C18.4653 9.35467 18.0707 9.97067 17.564 10.504C17.0573 11.0373 16.4707 11.456 15.804 11.76C15.1373 12.0587 14.4227 12.208 13.66 12.208ZM13.66 10.256C14.1507 10.256 14.612 10.1547 15.044 9.952C15.476 9.74933 15.8547 9.472 16.18 9.12C16.5107 8.76267 16.7667 8.352 16.948 7.888C17.1347 7.424 17.228 6.928 17.228 6.4C17.228 5.872 17.1347 5.376 16.948 4.912C16.7613 4.44267 16.5027 4.032 16.172 3.68C15.8467 3.328 15.468 3.05067 15.036 2.848C14.6093 2.64533 14.1507 2.544 13.66 2.544C13.1693 2.544 12.708 2.64533 12.276 2.848C11.844 3.05067 11.4627 3.33067 11.132 3.688C10.8067 4.04 10.5507 4.448 10.364 4.912C10.1827 5.376 10.092 5.872 10.092 6.4C10.092 6.93333 10.1853 7.432 10.372 7.896C10.5587 8.36 10.8147 8.77067 11.14 9.128C11.4707 9.48 11.8493 9.75733 12.276 9.96C12.708 10.1573 13.1693 10.256 13.66 10.256ZM25.6715 12.208C24.8928 12.208 24.1675 12.056 23.4955 11.752C22.8288 11.448 22.2475 11.0293 21.7515 10.496C21.2555 9.95733 20.8662 9.33867 20.5835 8.64C20.3062 7.936 20.1675 7.184 20.1675 6.384C20.1675 5.54133 20.3168 4.768 20.6155 4.064C20.9195 3.36 21.3328 2.74933 21.8555 2.232C22.3782 1.71467 22.9702 1.31467 23.6315 1.032C24.2982 0.749333 24.9915 0.608 25.7115 0.608C26.5168 0.608 27.2982 0.797333 28.0555 1.176C28.8182 1.54933 29.4902 2.128 30.0715 2.912L28.3275 3.848C27.9702 3.41067 27.5595 3.08533 27.0955 2.872C26.6368 2.65333 26.1675 2.544 25.6875 2.544C25.2182 2.544 24.7675 2.64 24.3355 2.832C23.9088 3.024 23.5275 3.296 23.1915 3.648C22.8608 3.99467 22.5995 4.40533 22.4075 4.88C22.2155 5.34933 22.1195 5.864 22.1195 6.424C22.1195 6.952 22.2128 7.45067 22.3995 7.92C22.5862 8.384 22.8422 8.792 23.1675 9.144C23.4982 9.49067 23.8795 9.76267 24.3115 9.96C24.7435 10.1573 25.2075 10.256 25.7035 10.256C26.0342 10.256 26.3568 10.2053 26.6715 10.104C26.9915 9.99733 27.2902 9.84533 27.5675 9.648C27.8502 9.45067 28.1008 9.21067 28.3195 8.928C28.5435 8.64533 28.7302 8.32533 28.8795 7.968H26.8395V6.264H31.1755C31.1968 7.08 31.0688 7.84533 30.7915 8.56C30.5142 9.27467 30.1222 9.90667 29.6155 10.456C29.1088 11.0053 28.5195 11.4347 27.8475 11.744C27.1755 12.0533 26.4502 12.208 25.6715 12.208ZM36.7 12V0.799999H38.652V12H36.7ZM41.0316 12V0.799999H43.1436L47.8716 8.472V0.799999H49.8236V12H47.7196L42.9836 4.328V12H41.0316Z" fill="#BC3800"/>
</svg>
